<?xml version="1.0" encoding="UTF-8"?>
<svg id="Capa_2" data-name="Capa 2" xmlns="http://www.w3.org/2000/svg" xmlns:xlink="http://www.w3.org/1999/xlink" viewBox="0 0 238.03 44.36">
  <defs>
    <style>
      .cls-1 {
        fill: url(#Degradado_sin_nombre_182);
      }

      .cls-2 {
        fill: #f5f1fc;
      }

      .cls-3 {
        fill: url(#Degradado_sin_nombre_2);
      }

      .cls-4 {
        fill: url(#Degradado_sin_nombre_106);
      }

      .cls-5 {
        fill: url(#Degradado_sin_nombre_107);
      }
    </style>
    <linearGradient id="Degradado_sin_nombre_107" data-name="Degradado sin nombre 107" x1="1774.83" y1="-7559.8" x2="1728.51" y2="-7549.14" gradientTransform="translate(-5650.33 -5269.3) rotate(120)" gradientUnits="userSpaceOnUse">
      <stop offset=".09" stop-color="#0e9970"/>
      <stop offset=".1" stop-color="#14a379"/>
      <stop offset=".12" stop-color="#27bf93"/>
      <stop offset=".14" stop-color="#34d3a6"/>
      <stop offset=".16" stop-color="#3cdfb1"/>
      <stop offset=".18" stop-color="#3fe3b5"/>
      <stop offset=".27" stop-color="#45babc"/>
      <stop offset=".47" stop-color="#5460cc"/>
      <stop offset=".56" stop-color="#5b3dd3"/>
    </linearGradient>
    <linearGradient id="Degradado_sin_nombre_106" data-name="Degradado sin nombre 106" x1="92.3" y1="235.6" x2="44.77" y2="235.6" gradientTransform="translate(-44.77 -200.87)" gradientUnits="userSpaceOnUse">
      <stop offset=".05" stop-color="#1a0f4a"/>
      <stop offset=".19" stop-color="#2e1b6e"/>
      <stop offset=".28" stop-color="#3e2792"/>
      <stop offset=".38" stop-color="#4a30ae"/>
      <stop offset=".47" stop-color="#5337c2"/>
      <stop offset=".56" stop-color="#593bce"/>
      <stop offset=".65" stop-color="#5b3dd3"/>
    </linearGradient>
    <linearGradient id="Degradado_sin_nombre_2" data-name="Degradado sin nombre 2" x1="16.34" y1="6.04" x2="51.6" y2="51.89" gradientUnits="userSpaceOnUse">
      <stop offset=".04" stop-color="#1a0f4a"/>
      <stop offset=".08" stop-color="#201355"/>
      <stop offset=".18" stop-color="#2e1b6e"/>
      <stop offset=".2" stop-color="#321e77"/>
      <stop offset=".28" stop-color="#402998"/>
      <stop offset=".36" stop-color="#4c31b2"/>
      <stop offset=".44" stop-color="#5438c4"/>
      <stop offset=".53" stop-color="#593bcf"/>
      <stop offset=".63" stop-color="#5b3dd3"/>
      <stop offset=".95" stop-color="#7d10ff"/>
    </linearGradient>
    <linearGradient id="Degradado_sin_nombre_182" data-name="Degradado sin nombre 182" x1="22.5" y1="36.36" x2="22.5" y2="3.7" gradientUnits="userSpaceOnUse">
      <stop offset=".03" stop-color="#3fe3b5"/>
      <stop offset=".37" stop-color="#66b4d3"/>
      <stop offset=".76" stop-color="#9084f2"/>
      <stop offset=".96" stop-color="#a072ff"/>
    </linearGradient>
  </defs>
  <g id="Capa_1-2" data-name="Capa 1">
    <g>
      <g>
        <path class="cls-2" d="M63.18,41.93L79.53,5.77h5.34l16.41,36.16h-4.32l-4.86-10.63h-19.86l-4.86,10.63h-4.21ZM73.81,27.84h16.73l-6.26-13.71-2-4.7h-.32l-1.94,4.7-6.21,13.71Z"/>
        <path class="cls-2" d="M101.41,31.6v-.13h4.44v.38c0,5.19,3.07,7.01,10.64,7.01,6.95,0,9.32-1.63,9.32-5.19,0-3.25-1.94-4.32-7.07-5.13l-8.26-1.19c-5.63-.75-9.2-2.94-9.2-8.07,0-5.44,5.19-8.89,13.7-8.89s14.64,3.75,14.64,11.01v.13h-4.44v-.31c0-4.63-2.44-7.13-10.32-7.13-6.51,0-9.2,1.56-9.2,5.26,0,3.19,1.63,4.32,6.76,5.07l7.57,1.06c6.63.94,10.2,3.19,10.2,8.2,0,5.82-5.76,8.89-13.77,8.89-9.51,0-15.02-3.82-15.02-10.95Z"/>
        <path class="cls-2" d="M133.59,26.47c0-9.39,6.7-16.08,16.77-16.08s16.83,6.7,16.83,16.08-6.7,16.08-16.83,16.08-16.77-6.7-16.77-16.08ZM162.81,26.47c0-7.45-3.94-12.08-12.45-12.08s-12.39,4.63-12.39,12.08,3.88,12.08,12.39,12.08,12.45-4.57,12.45-12.08Z"/>
        <path class="cls-2" d="M173.72,41.93V14.83h-4.94v-3.82h5.01c.5-7.32,5.44-11.01,13.45-11.01h3.38v3.5h-4c-5.63,0-8.7,1.88-8.45,7.51h12.45v3.82h-12.45v27.09h-4.44ZM194.93,6.48V0h4.44v6.48h-4.44ZM194.93,41.93V11.01h4.44v30.91h-4.44Z"/>
        <path class="cls-2" d="M202.92,41.93l14.08-15.39v-.31l-14.08-15.21h5.38l12.08,12.83h.31l12.01-12.83h5.32l-14.14,15.08v.31l14.14,15.52h-5.38l-12.14-13.08h-.25l-12.01,13.08h-5.32Z"/>
      </g>
      <g>
        <path class="cls-5" d="M26.52,3.82c-.97-2.21-3.85-1.7-4.94-.17-.08.11-.34.55-.45.74C19.15,7.95,1.63,38.21.5,39.84c-1.2,1.73-.02,4.24,2.81,4.31,5.84.16,14.62-1.14,17.98-3.22.48-.3.92-.63,1.3-1.01.84-.83.85-2.17.12-3.08C14.28,26.35,20.23,2.4,26.52,3.82Z"/>
        <path class="cls-4" d="M.5,39.83c-1.42,1.95.46,4.18,2.32,4.36.14.01.65.02.86.02,4.08-.07,39.05-.02,41.02.14,2.09.17,3.68-2.1,2.33-4.59-2.78-5.14-8.29-12.09-11.78-13.96-.5-.27-1.01-.48-1.52-.62-1.14-.31-2.3.34-2.73,1.44C26.13,39.16,2.42,45.98.5,39.83Z"/>
        <path class="cls-3" d="M47.32,40.15c-.06-.13-.3-.57-.41-.76-1.12-1.87-6.6-11.36-11.61-20.08-4.38-7.63-8.39-14.66-8.78-15.5-3.79-.84-7.21,7.02-7.88,15.6-.13,1.65-.14,3.36-.04,5.02h0c3.78-.42,7.88.65,11.71,2.49,9.58,4.6,17.46,14.07,14.38,17.41,2.4.26,3.4-2.49,2.62-4.19Z"/>
        <path class="cls-1" d="M26.51,3.82c-.75-.17-1.54.05-2.18.46-.64.41-1.17.98-1.62,1.59-.9,1.23-1.55,2.63-2.08,4.05-1.05,2.86-1.64,5.88-1.92,8.91-.29,3.03-.22,6.1.3,9.1.26,1.5.63,2.98,1.16,4.41.53,1.43,1.21,2.81,2.16,4.01-.95-1.19-1.64-2.58-2.17-4-.53-1.43-.91-2.91-1.18-4.41-.53-3-.61-6.08-.34-9.12.3-3.03.9-6.05,1.96-8.91.54-1.42,1.19-2.82,2.1-4.05.46-.61.98-1.18,1.63-1.59.64-.41,1.43-.63,2.18-.46Z"/>
      </g>
    </g>
  </g>
</svg>